<mxfile host="app.diagrams.net" modified="2023-06-01T20:08:25.367Z" agent="Mozilla/5.0 (Windows NT 10.0; Win64; x64) AppleWebKit/537.36 (KHTML, like Gecko) Chrome/113.0.0.0 Safari/537.36" version="21.3.6" etag="9Jernn65ZM79-y2Bf8Ga" type="github">
  <diagram name="Page-1" id="fLkUl8sPVDU1VXZ5h0pW">
    <mxGraphModel>
      <root>
        <mxCell id="0" />
        <mxCell id="1" parent="0" />
      </root>
    </mxGraphModel>
  </diagram>
</mxfile>
